<svg aria-hidden="true" style="position:absolute;width:0;height:0;overflow:hidden" xmlns="http://www.w3.org/2000/svg"><defs>
<symbol id="icon-logo" viewBox="0 0 100 32"><path d="M43.846 1.104H0v30h43.846l11.538-15-11.538-15zM19.657 14.075l-.202-.163a18.452 18.452 0 0 0-.506-.4c-.466-.356-.972-.639-1.553-.765-.641-.14-1.288-.191-1.928.003-.912.276-1.547.876-1.967 1.713-.348.696-.441 1.434-.35 2.201.073.601.266 1.158.621 1.652.545.759 1.288 1.198 2.217 1.314.836.105 1.646 0 2.413-.366.262-.125.262-.128.262-.417v-.71c.001-.058.001-.088-.013-.104s-.048-.016-.116-.015h-2.546c-.068.001-.101.001-.117-.015s-.014-.046-.013-.105l.001-.07v-2.91l.001-.036a.574.574 0 0 0-.001-.072c-.005-.057.015-.088.078-.082.024.002.048.001.073.001l.036-.001h6.146c.04 0 .074.008.068.059-.003.031.017.051.036.072.024.025.049.052.035.097-.012.039-.009.082-.006.125l.003.058v1.105c0 1.474 0 2.948.003 4.422 0 .12-.037.196-.128.271-1.144.947-2.431 1.609-3.887 1.937a8.66 8.66 0 0 1-2.614.177c-1.041-.083-2.03-.35-2.944-.855-1.677-.927-2.733-2.335-3.219-4.172a7.313 7.313 0 0 1-.211-2.473c.255-3.095 2.433-5.51 5.35-6.182.833-.193 1.674-.22 2.522-.163.65.045 1.29.146 1.916.331.937.279 1.764.759 2.516 1.375.088.072.175.145.26.219.108.092.111.145.017.259-.474.57-.948 1.138-1.423 1.706-.237.285-.474.57-.712.853l-.018.024c-.026.035-.054.073-.099.1zm12.095-4.894c1.764.014 3.47.634 4.902 1.937 1.112 1.013 1.793 2.276 2.066 3.75.303 1.64.085 3.211-.729 4.675-.966 1.737-2.44 2.851-4.364 3.354-1.655.434-3.297.346-4.881-.311-2.063-.858-3.396-2.398-4.021-4.514-.559-1.893-.356-3.733.644-5.449.974-1.672 2.44-2.72 4.314-3.208.646-.168 1.254-.234 2.069-.236zm-.419 3.522c-.968.022-1.965.573-2.589 1.723-.424.781-.523 1.623-.362 2.493.127.687.426 1.295.921 1.794.773.779 1.719 1.086 2.803.961 1.121-.128 1.954-.701 2.488-1.685.454-.838.548-1.734.336-2.656-.35-1.531-1.634-2.635-3.597-2.63zM99.231 1.104v30H55.385v-30h43.846zm-29.462 8.26V22.42l.001.042a.745.745 0 0 1-.001.082c-.006.076.014.12.101.108.021-.002.041-.001.062-.001l.031.001h3.358c.07.001.105.001.121-.016s.015-.048.013-.109l-.001-.073V9.382l-.001-.031a.428.428 0 0 1 .001-.062c.008-.077-.019-.117-.102-.108-.016.002-.034.001-.051.001h-1.135c-.74 0-1.48-.001-2.219 0l-.058-.001c-.061-.001-.092-.001-.107.014s-.015.046-.014.108l.001.06zm18.355-.181h-5.497c-1.832 0-3.664 0-5.494-.002h-.123c-.062-.003-.084.026-.079.083a.434.434 0 0 1 0 .051V12.499c0 .067 0 .1.016.116s.048.015.11.015h3.496c.113 0 .168 0 .196.028s.027.081.027.188v9.639l-.001.049c-.001.055-.001.084.013.099.016.017.049.016.119.016h3.348c.104 0 .155 0 .181-.026s.025-.075.025-.174V12.81l-.001-.056c-.001-.059-.001-.091.014-.107.016-.017.052-.017.125-.017h3.561c.152 0 .152 0 .153-.149V9.313c.001-.068.001-.101-.015-.118s-.049-.016-.115-.015l-.059.001z"/></symbol></defs>
</svg>